<svg width="400" height="400" viewBox="0 0 400 400" xmlns="http://www.w3.org/2000/svg">
<defs>
    <filter id="shadow" x="-20%" y="-20%" width="140%" height="140%">
        <feDropShadow dx="2" dy="4" stdDeviation="3" flood-opacity="0.3"/>
    </filter>
    <filter id="glow" x="-50%" y="-50%" width="200%" height="200%">
        <feGaussianBlur stdDeviation="8" result="blur"/>
        <feMerge><feMergeNode in="blur"/><feMergeNode in="SourceGraphic"/></feMerge>
    </filter>
    <linearGradient id="rainbow-body" x1="0%" y1="0%" x2="100%" y2="100%">
        <stop offset="0%" stop-color="#FF6B6B"/><stop offset="25%" stop-color="#FFE66D"/>
        <stop offset="50%" stop-color="#4ECDC4"/><stop offset="75%" stop-color="#45B7D1"/>
        <stop offset="100%" stop-color="#DDA0DD"/>
    </linearGradient>
    <radialGradient id="galaxy-body" cx="30%" cy="30%">
        <stop offset="0%" stop-color="#E6E6FA"/><stop offset="50%" stop-color="#9370DB"/>
        <stop offset="100%" stop-color="#1A0033"/>
    </radialGradient>
    <linearGradient id="holo-body" x1="0%" y1="0%" x2="100%" y2="100%">
        <stop offset="0%" stop-color="#FF00FF"/><stop offset="50%" stop-color="#00FFFF"/>
        <stop offset="100%" stop-color="#FFFF00"/>
    </linearGradient>
    <linearGradient id="sky-gradient" x1="0%" y1="0%" x2="0%" y2="100%">
        <stop offset="0%" stop-color="#87CEEB"/><stop offset="100%" stop-color="#E0F4FF"/>
    </linearGradient>
    <linearGradient id="grass-gradient" x1="0%" y1="0%" x2="0%" y2="100%">
        <stop offset="0%" stop-color="#90EE90"/><stop offset="100%" stop-color="#228B22"/>
    </linearGradient>
    <linearGradient id="sunset-gradient" x1="0%" y1="0%" x2="0%" y2="100%">
        <stop offset="0%" stop-color="#FF6B6B"/><stop offset="50%" stop-color="#FFE66D"/>
        <stop offset="100%" stop-color="#4ECDC4"/>
    </linearGradient>
    <linearGradient id="aurora-gradient" x1="0%" y1="0%" x2="100%" y2="100%">
        <stop offset="0%" stop-color="#0D1B2A"/><stop offset="30%" stop-color="#00FF7F"/>
        <stop offset="70%" stop-color="#FF00FF"/><stop offset="100%" stop-color="#0D1B2A"/>
    </linearGradient>
    <radialGradient id="multiverse-gradient" cx="50%" cy="50%">
        <stop offset="0%" stop-color="#FFD700"/><stop offset="40%" stop-color="#FF00FF"/>
        <stop offset="70%" stop-color="#00FFFF"/><stop offset="100%" stop-color="#000"/>
    </radialGradient>
    <linearGradient id="rift-gradient" x1="0%" y1="0%" x2="100%" y2="100%">
        <stop offset="0%" stop-color="#000"/><stop offset="30%" stop-color="#9400D3"/>
        <stop offset="50%" stop-color="#00FFFF"/><stop offset="70%" stop-color="#9400D3"/>
        <stop offset="100%" stop-color="#000"/>
    </linearGradient>
    <linearGradient id="heaven-gradient" x1="0%" y1="0%" x2="0%" y2="100%">
        <stop offset="0%" stop-color="#FFF"/><stop offset="50%" stop-color="#FFD700" stop-opacity="0.3"/>
        <stop offset="100%" stop-color="#F0F8FF"/>
    </linearGradient>
    <clipPath id="head-clip"><ellipse cx="200" cy="200" rx="110" ry="115"/></clipPath>
</defs>
<rect width="400" height="400" fill="#0D1B2A"/>
<circle cx="349" cy="191" r="1" fill="white" opacity="0.4"/>
<circle cx="298" cy="382" r="2" fill="white" opacity="0.5"/>
<circle cx="247" cy="173" r="1" fill="white" opacity="0.6000000000000001"/>
<circle cx="196" cy="364" r="2" fill="white" opacity="0.7000000000000001"/>
<circle cx="145" cy="155" r="1" fill="white" opacity="0.8"/>
<circle cx="94" cy="346" r="2" fill="white" opacity="0.4"/>
<circle cx="43" cy="137" r="1" fill="white" opacity="0.5"/>
<circle cx="392" cy="328" r="2" fill="white" opacity="0.6000000000000001"/>
<circle cx="341" cy="119" r="1" fill="white" opacity="0.7000000000000001"/>
<circle cx="290" cy="310" r="2" fill="white" opacity="0.8"/>
<circle cx="239" cy="101" r="1" fill="white" opacity="0.4"/>
<circle cx="188" cy="292" r="2" fill="white" opacity="0.5"/>
<circle cx="137" cy="83" r="1" fill="white" opacity="0.6000000000000001"/>
<circle cx="86" cy="274" r="2" fill="white" opacity="0.7000000000000001"/>
<circle cx="35" cy="65" r="1" fill="white" opacity="0.8"/>
<circle cx="384" cy="256" r="2" fill="white" opacity="0.4"/>
<circle cx="333" cy="47" r="1" fill="white" opacity="0.5"/>
<circle cx="282" cy="238" r="2" fill="white" opacity="0.6000000000000001"/>
<circle cx="231" cy="29" r="1" fill="white" opacity="0.7000000000000001"/>
<circle cx="180" cy="220" r="2" fill="white" opacity="0.8"/>
<circle cx="129" cy="11" r="1" fill="white" opacity="0.4"/>
<circle cx="78" cy="202" r="2" fill="white" opacity="0.5"/>
<circle cx="27" cy="393" r="1" fill="white" opacity="0.6000000000000001"/>
<circle cx="376" cy="184" r="2" fill="white" opacity="0.7000000000000001"/>
<circle cx="325" cy="375" r="1" fill="white" opacity="0.8"/>
<circle cx="274" cy="166" r="2" fill="white" opacity="0.4"/>
<circle cx="223" cy="357" r="1" fill="white" opacity="0.5"/>
<circle cx="172" cy="148" r="2" fill="white" opacity="0.6000000000000001"/>
<circle cx="121" cy="339" r="1" fill="white" opacity="0.7000000000000001"/>
<circle cx="70" cy="130" r="2" fill="white" opacity="0.8"/>
<circle cx="19" cy="321" r="1" fill="white" opacity="0.4"/>
<circle cx="368" cy="112" r="2" fill="white" opacity="0.5"/>
<circle cx="317" cy="303" r="1" fill="white" opacity="0.6000000000000001"/>
<circle cx="266" cy="94" r="2" fill="white" opacity="0.7000000000000001"/>
<circle cx="215" cy="285" r="1" fill="white" opacity="0.8"/>
<circle cx="164" cy="76" r="2" fill="white" opacity="0.4"/>
<circle cx="113" cy="267" r="1" fill="white" opacity="0.5"/>
<circle cx="62" cy="58" r="2" fill="white" opacity="0.6000000000000001"/>
<circle cx="11" cy="249" r="1" fill="white" opacity="0.7000000000000001"/>
<circle cx="360" cy="40" r="2" fill="white" opacity="0.8"/>
<circle cx="200" cy="200" r="165" fill="none" stroke="#00FFFF" stroke-width="3" opacity="0.25" stroke-dasharray="20,10"/>
<ellipse cx="115" cy="140" rx="45" ry="50" fill="#CD7F32" filter="url(#shadow)"/>
<ellipse cx="115" cy="140" rx="30" ry="35" fill="#FFB6C1"/>
<ellipse cx="115" cy="145" rx="18" ry="22" fill="#FF9999"/>
<ellipse cx="285" cy="140" rx="45" ry="50" fill="#CD7F32" filter="url(#shadow)"/>
<ellipse cx="285" cy="140" rx="30" ry="35" fill="#FFB6C1"/>
<ellipse cx="285" cy="145" rx="18" ry="22" fill="#FF9999"/>
<ellipse cx="200" cy="200" rx="110" ry="115" fill="#CD7F32" filter="url(#shadow)"/>
<ellipse cx="180" cy="140" rx="50" ry="30" fill="#DAA06D" opacity="0.3"/>
<g clip-path="url(#head-clip)"><text x="120" y="120" font-size="18" fill="#FFD700" opacity="0.5">★</text><text x="151" y="259" font-size="18" fill="#FFD700" opacity="0.5">★</text><text x="182" y="238" font-size="18" fill="#FFD700" opacity="0.5">★</text><text x="213" y="217" font-size="18" fill="#FFD700" opacity="0.5">★</text><text x="244" y="196" font-size="18" fill="#FFD700" opacity="0.5">★</text><text x="275" y="175" font-size="18" fill="#FFD700" opacity="0.5">★</text><text x="146" y="154" font-size="18" fill="#FFD700" opacity="0.5">★</text><text x="177" y="133" font-size="18" fill="#FFD700" opacity="0.5">★</text></g>
<ellipse cx="200" cy="235" rx="70" ry="60" fill="#FFDAB9"/>
<ellipse cx="200" cy="250" rx="55" ry="40" fill="#DEB887" opacity="0.3"/>
<ellipse cx="162" cy="185" rx="22" ry="24" fill="#000" opacity="0.08"/>
<ellipse cx="238" cy="185" rx="22" ry="24" fill="#000" opacity="0.08"/>
<ellipse cx="162" cy="185" rx="18" ry="20" fill="#E6E6FA" filter="url(#glow)"/>
<circle cx="162" cy="185" r="10" fill="#9370DB"/>
<circle cx="162" cy="185" r="4" fill="#FFF"/>
<ellipse cx="238" cy="185" rx="18" ry="20" fill="#E6E6FA" filter="url(#glow)"/>
<circle cx="238" cy="185" r="10" fill="#9370DB"/>
<circle cx="238" cy="185" r="4" fill="#FFF"/>
<g>
            <ellipse cx="200" cy="230" rx="25" ry="18" fill="#8B4513"/>
            <ellipse cx="200" cy="230" rx="22" ry="15" fill="#A0522D"/>
            <ellipse cx="192" cy="230" rx="5" ry="7" fill="#5D2E0C"/>
            <ellipse cx="208" cy="230" rx="5" ry="7" fill="#5D2E0C"/>
        </g>
<path d="M178 260 Q200 268 222 260" stroke="#5D2E0C" stroke-width="2" fill="none"/>
<path d="M110 120 Q200 90 290 120" stroke="#E74C3C" stroke-width="12" fill="none"/><polygon points="105,125 90,160 115,150" fill="#E74C3C"/>

<g transform="translate(325, 15)">
            <rect width="65" height="22" rx="4" fill="#4ECDC4" opacity="0.9"/>
            <text x="32" y="15" font-size="8" fill="#FFF" text-anchor="middle" font-family="sans-serif" font-weight="bold">UNCOMMON</text>
        </g>
        <g transform="translate(10, 15)">
            <rect width="45" height="22" rx="4" fill="#333" opacity="0.8"/>
            <text x="22" y="15" font-size="9" fill="#FFF" text-anchor="middle" font-family="sans-serif">Gen 1</text>
        </g>
</svg>