<svg width="400" height="400" viewBox="0 0 400 400" xmlns="http://www.w3.org/2000/svg">
<defs>
    <filter id="shadow" x="-20%" y="-20%" width="140%" height="140%">
        <feDropShadow dx="2" dy="4" stdDeviation="3" flood-opacity="0.3"/>
    </filter>
    <filter id="glow" x="-50%" y="-50%" width="200%" height="200%">
        <feGaussianBlur stdDeviation="8" result="blur"/>
        <feMerge><feMergeNode in="blur"/><feMergeNode in="SourceGraphic"/></feMerge>
    </filter>
    <linearGradient id="rainbow-body" x1="0%" y1="0%" x2="100%" y2="100%">
        <stop offset="0%" stop-color="#FF6B6B"/><stop offset="25%" stop-color="#FFE66D"/>
        <stop offset="50%" stop-color="#4ECDC4"/><stop offset="75%" stop-color="#45B7D1"/>
        <stop offset="100%" stop-color="#DDA0DD"/>
    </linearGradient>
    <radialGradient id="galaxy-body" cx="30%" cy="30%">
        <stop offset="0%" stop-color="#E6E6FA"/><stop offset="50%" stop-color="#9370DB"/>
        <stop offset="100%" stop-color="#1A0033"/>
    </radialGradient>
    <linearGradient id="holo-body" x1="0%" y1="0%" x2="100%" y2="100%">
        <stop offset="0%" stop-color="#FF00FF"/><stop offset="50%" stop-color="#00FFFF"/>
        <stop offset="100%" stop-color="#FFFF00"/>
    </linearGradient>
    <linearGradient id="sky-gradient" x1="0%" y1="0%" x2="0%" y2="100%">
        <stop offset="0%" stop-color="#87CEEB"/><stop offset="100%" stop-color="#E0F4FF"/>
    </linearGradient>
    <linearGradient id="grass-gradient" x1="0%" y1="0%" x2="0%" y2="100%">
        <stop offset="0%" stop-color="#90EE90"/><stop offset="100%" stop-color="#228B22"/>
    </linearGradient>
    <linearGradient id="sunset-gradient" x1="0%" y1="0%" x2="0%" y2="100%">
        <stop offset="0%" stop-color="#FF6B6B"/><stop offset="50%" stop-color="#FFE66D"/>
        <stop offset="100%" stop-color="#4ECDC4"/>
    </linearGradient>
    <linearGradient id="aurora-gradient" x1="0%" y1="0%" x2="100%" y2="100%">
        <stop offset="0%" stop-color="#0D1B2A"/><stop offset="30%" stop-color="#00FF7F"/>
        <stop offset="70%" stop-color="#FF00FF"/><stop offset="100%" stop-color="#0D1B2A"/>
    </linearGradient>
    <radialGradient id="multiverse-gradient" cx="50%" cy="50%">
        <stop offset="0%" stop-color="#FFD700"/><stop offset="40%" stop-color="#FF00FF"/>
        <stop offset="70%" stop-color="#00FFFF"/><stop offset="100%" stop-color="#000"/>
    </radialGradient>
    <linearGradient id="rift-gradient" x1="0%" y1="0%" x2="100%" y2="100%">
        <stop offset="0%" stop-color="#000"/><stop offset="30%" stop-color="#9400D3"/>
        <stop offset="50%" stop-color="#00FFFF"/><stop offset="70%" stop-color="#9400D3"/>
        <stop offset="100%" stop-color="#000"/>
    </linearGradient>
    <linearGradient id="heaven-gradient" x1="0%" y1="0%" x2="0%" y2="100%">
        <stop offset="0%" stop-color="#FFF"/><stop offset="50%" stop-color="#FFD700" stop-opacity="0.3"/>
        <stop offset="100%" stop-color="#F0F8FF"/>
    </linearGradient>
    <clipPath id="head-clip"><ellipse cx="200" cy="200" rx="110" ry="115"/></clipPath>
</defs>
<rect width="400" height="400" fill="#0D1B2A"/>
<circle cx="143" cy="37" r="1" fill="white" opacity="0.4"/>
<circle cx="286" cy="74" r="2" fill="white" opacity="0.5"/>
<circle cx="29" cy="111" r="1" fill="white" opacity="0.6000000000000001"/>
<circle cx="172" cy="148" r="2" fill="white" opacity="0.7000000000000001"/>
<circle cx="315" cy="185" r="1" fill="white" opacity="0.8"/>
<circle cx="58" cy="222" r="2" fill="white" opacity="0.4"/>
<circle cx="201" cy="259" r="1" fill="white" opacity="0.5"/>
<circle cx="344" cy="296" r="2" fill="white" opacity="0.6000000000000001"/>
<circle cx="87" cy="333" r="1" fill="white" opacity="0.7000000000000001"/>
<circle cx="230" cy="370" r="2" fill="white" opacity="0.8"/>
<circle cx="373" cy="7" r="1" fill="white" opacity="0.4"/>
<circle cx="116" cy="44" r="2" fill="white" opacity="0.5"/>
<circle cx="259" cy="81" r="1" fill="white" opacity="0.6000000000000001"/>
<circle cx="2" cy="118" r="2" fill="white" opacity="0.7000000000000001"/>
<circle cx="145" cy="155" r="1" fill="white" opacity="0.8"/>
<circle cx="288" cy="192" r="2" fill="white" opacity="0.4"/>
<circle cx="31" cy="229" r="1" fill="white" opacity="0.5"/>
<circle cx="174" cy="266" r="2" fill="white" opacity="0.6000000000000001"/>
<circle cx="317" cy="303" r="1" fill="white" opacity="0.7000000000000001"/>
<circle cx="60" cy="340" r="2" fill="white" opacity="0.8"/>
<circle cx="203" cy="377" r="1" fill="white" opacity="0.4"/>
<circle cx="346" cy="14" r="2" fill="white" opacity="0.5"/>
<circle cx="89" cy="51" r="1" fill="white" opacity="0.6000000000000001"/>
<circle cx="232" cy="88" r="2" fill="white" opacity="0.7000000000000001"/>
<circle cx="375" cy="125" r="1" fill="white" opacity="0.8"/>
<circle cx="118" cy="162" r="2" fill="white" opacity="0.4"/>
<circle cx="261" cy="199" r="1" fill="white" opacity="0.5"/>
<circle cx="4" cy="236" r="2" fill="white" opacity="0.6000000000000001"/>
<circle cx="147" cy="273" r="1" fill="white" opacity="0.7000000000000001"/>
<circle cx="290" cy="310" r="2" fill="white" opacity="0.8"/>
<circle cx="33" cy="347" r="1" fill="white" opacity="0.4"/>
<circle cx="176" cy="384" r="2" fill="white" opacity="0.5"/>
<circle cx="319" cy="21" r="1" fill="white" opacity="0.6000000000000001"/>
<circle cx="62" cy="58" r="2" fill="white" opacity="0.7000000000000001"/>
<circle cx="205" cy="95" r="1" fill="white" opacity="0.8"/>
<circle cx="348" cy="132" r="2" fill="white" opacity="0.4"/>
<circle cx="91" cy="169" r="1" fill="white" opacity="0.5"/>
<circle cx="234" cy="206" r="2" fill="white" opacity="0.6000000000000001"/>
<circle cx="377" cy="243" r="1" fill="white" opacity="0.7000000000000001"/>
<circle cx="120" cy="280" r="2" fill="white" opacity="0.8"/>
<circle cx="200" cy="200" r="165" fill="none" stroke="#00FFFF" stroke-width="3" opacity="0.25" stroke-dasharray="20,10"/>
<ellipse cx="115" cy="140" rx="45" ry="50" fill="#CD7F32" filter="url(#shadow)"/>
<ellipse cx="115" cy="140" rx="30" ry="35" fill="#FFB6C1"/>
<ellipse cx="115" cy="145" rx="18" ry="22" fill="#FF9999"/>
<ellipse cx="285" cy="140" rx="45" ry="50" fill="#CD7F32" filter="url(#shadow)"/>
<ellipse cx="285" cy="140" rx="30" ry="35" fill="#FFB6C1"/>
<ellipse cx="285" cy="145" rx="18" ry="22" fill="#FF9999"/>
<ellipse cx="200" cy="200" rx="110" ry="115" fill="#CD7F32" filter="url(#shadow)"/>
<ellipse cx="180" cy="140" rx="50" ry="30" fill="#DAA06D" opacity="0.3"/>
<g clip-path="url(#head-clip)"><text x="120" y="120" font-size="18" fill="#FFD700" opacity="0.5">★</text><text x="237" y="273" font-size="18" fill="#FFD700" opacity="0.5">★</text><text x="194" y="266" font-size="18" fill="#FFD700" opacity="0.5">★</text><text x="151" y="259" font-size="18" fill="#FFD700" opacity="0.5">★</text><text x="268" y="252" font-size="18" fill="#FFD700" opacity="0.5">★</text><text x="225" y="245" font-size="18" fill="#FFD700" opacity="0.5">★</text><text x="182" y="238" font-size="18" fill="#FFD700" opacity="0.5">★</text><text x="139" y="231" font-size="18" fill="#FFD700" opacity="0.5">★</text></g>
<ellipse cx="200" cy="235" rx="70" ry="60" fill="#FFDAB9"/>
<ellipse cx="200" cy="250" rx="55" ry="40" fill="#DEB887" opacity="0.3"/>
<ellipse cx="162" cy="185" rx="22" ry="24" fill="#000" opacity="0.08"/>
<ellipse cx="238" cy="185" rx="22" ry="24" fill="#000" opacity="0.08"/>
<ellipse cx="162" cy="185" rx="18" ry="20" fill="#E6E6FA" filter="url(#glow)"/>
<circle cx="162" cy="185" r="10" fill="#9370DB"/>
<circle cx="162" cy="185" r="4" fill="#FFF"/>
<ellipse cx="238" cy="185" rx="18" ry="20" fill="#E6E6FA" filter="url(#glow)"/>
<circle cx="238" cy="185" r="10" fill="#9370DB"/>
<circle cx="238" cy="185" r="4" fill="#FFF"/>
<g>
            <ellipse cx="200" cy="230" rx="25" ry="18" fill="#8B4513"/>
            <ellipse cx="200" cy="230" rx="22" ry="15" fill="#A0522D"/>
            <ellipse cx="192" cy="230" rx="5" ry="7" fill="#5D2E0C"/>
            <ellipse cx="208" cy="230" rx="5" ry="7" fill="#5D2E0C"/>
        </g>
<path d="M178 260 Q200 268 222 260" stroke="#5D2E0C" stroke-width="2" fill="none"/>
<path d="M110 120 Q200 90 290 120" stroke="#E74C3C" stroke-width="12" fill="none"/><polygon points="105,125 90,160 115,150" fill="#E74C3C"/>

<g transform="translate(325, 15)">
            <rect width="65" height="22" rx="4" fill="#4ECDC4" opacity="0.9"/>
            <text x="32" y="15" font-size="8" fill="#FFF" text-anchor="middle" font-family="sans-serif" font-weight="bold">UNCOMMON</text>
        </g>
        <g transform="translate(10, 15)">
            <rect width="45" height="22" rx="4" fill="#333" opacity="0.8"/>
            <text x="22" y="15" font-size="9" fill="#FFF" text-anchor="middle" font-family="sans-serif">Gen 1</text>
        </g>
</svg>